<svg width="157" height="48" viewBox="0 0 157 48" fill="none" xmlns="http://www.w3.org/2000/svg">
    <g clip-path="url(#clip0_0_3)">
        <mask id="mask0_0_3" style="mask-type:luminance" maskUnits="userSpaceOnUse" x="0" y="0" width="157" height="48">
            <path d="M156.92 0H0V48H156.92V0Z" fill="white"/>
        </mask>
        <g mask="url(#mask0_0_3)">
            <path d="M145.746 0H11.069C10.6433 0 10.2227 0 9.798 0.00225882C9.44267 0.00470588 9.09011 0.0114824 8.73128 0.0173176C7.95175 0.0267648 7.17406 0.0968027 6.40495 0.226824C5.6369 0.359688 4.89291 0.610166 4.19811 0.969788C3.50421 1.33255 2.87015 1.80388 2.31895 2.36668C1.76496 2.92793 1.30316 3.57662 0.95129 4.28781C0.59834 4.99759 0.353654 5.75823 0.225697 6.54344C0.0963788 7.32734 0.0268376 8.12031 0.0176993 8.9152C0.00682003 9.28 0.00571366 9.64386 0.000366211 10.0073V38.0184C0.00608245 38.3864 0.00718882 38.7428 0.0188057 39.1102C0.0279351 39.9051 0.0974763 40.6981 0.226803 41.482C0.354335 42.2676 0.599039 43.0287 0.952397 43.7387C1.30407 44.4477 1.76594 45.0938 2.32005 45.652C2.86917 46.2173 3.50363 46.6889 4.19922 47.0488C4.89402 47.4094 5.63793 47.6614 6.40606 47.7963C7.17528 47.9254 7.9529 47.9955 8.73238 48.0058C9.09122 48.0139 9.44378 48.0186 9.79911 48.0186C10.2232 48.0209 10.6444 48.0209 11.0701 48.0209H145.746C146.163 48.0209 146.587 48.0209 147.005 48.0186C147.358 48.0186 147.721 48.0139 148.074 48.0058C148.852 47.996 149.628 47.926 150.396 47.7963C151.166 47.6604 151.913 47.4085 152.611 47.0488C153.306 46.6887 153.94 46.2171 154.489 45.652C155.041 45.0916 155.504 44.446 155.86 43.7387C156.211 43.0282 156.453 42.2672 156.579 41.482C156.709 40.6979 156.781 39.9052 156.795 39.1102C156.799 38.742 156.799 38.3857 156.799 38.0184C156.808 37.5878 156.808 37.1597 156.808 36.7221V11.3013C156.808 10.8672 156.808 10.4367 156.799 10.0073C156.799 9.64386 156.799 9.27944 156.795 8.91558C156.781 8.12063 156.709 7.32784 156.579 6.54381C156.453 5.75909 156.211 4.99853 155.86 4.28819C155.144 2.86248 154.008 1.70193 152.611 0.969788C151.913 0.611064 151.167 0.360653 150.396 0.226824C149.629 0.096245 148.852 0.0262026 148.074 0.0173176C147.721 0.0114824 147.358 0.00470588 147.005 0.00225882C146.587 0 146.163 0 145.746 0Z" fill="black"/>
            <path d="M9.80371 46.9852C9.45004 46.9852 9.10486 46.9807 8.75395 46.9726C8.0267 46.963 7.30115 46.8984 6.58326 46.7793C5.91413 46.6617 5.26592 46.4429 4.66002 46.1301C4.05928 45.82 3.51137 45.4133 3.03734 44.9254C2.55661 44.4434 2.1564 43.8844 1.85261 43.2704C1.54589 42.6524 1.33383 41.99 1.22382 41.3063C1.10444 40.5717 1.03984 39.8289 1.03058 39.0842C1.0232 38.8343 1.01361 38.0021 1.01361 38.0021V10.0073C1.01361 10.0073 1.02375 9.18795 1.03058 8.9472C1.03945 8.20378 1.10368 7.46213 1.22271 6.72866C1.33348 6.0431 1.54627 5.37886 1.85371 4.75896C2.15647 4.14555 2.55443 3.58617 3.03218 3.10249C3.50944 2.61417 4.05879 2.20531 4.6602 1.89082C5.26475 1.57895 5.91176 1.36156 6.57957 1.24593C7.2995 1.12565 8.02726 1.06065 8.75672 1.05148L9.80427 1.03699H146.998L148.058 1.05205C148.781 1.06079 149.502 1.12516 150.216 1.24461C150.89 1.36161 151.544 1.58048 152.155 1.89402C153.36 2.52791 154.341 3.53091 154.959 4.76235C155.262 5.37799 155.471 6.03681 155.58 6.71642C155.701 7.45593 155.769 8.20345 155.783 8.95303C155.787 9.28866 155.787 9.6495 155.787 10.0072C155.796 10.4516 155.796 10.8745 155.796 11.3011V36.7221C155.796 37.1527 155.796 37.5727 155.787 37.9964C155.787 38.3817 155.787 38.7347 155.782 39.0982C155.768 39.8343 155.702 40.5684 155.583 41.2947C155.475 41.9833 155.264 42.6508 154.957 43.2738C154.651 43.881 154.253 44.4352 153.778 44.9159C153.303 45.4063 152.755 45.8155 152.153 46.1278C151.543 46.443 150.89 46.6626 150.217 46.7793C149.499 46.899 148.774 46.9636 148.047 46.9726C147.707 46.9807 147.351 46.9852 147.005 46.9852L145.746 46.9877L9.80371 46.9852Z" fill="black"/>
            <path d="M71.7657 26.1407H67.7491L66.7659 28.8496H65L68.9335 18.733H70.6027L74.626 28.8496H72.7701L71.7657 26.1407ZM68.2549 24.7653H71.2537L70.1798 21.8677C70.0322 21.4674 69.8868 21.0253 69.7434 20.5415C69.6141 20.9696 69.4734 21.4071 69.3215 21.854L68.2549 24.7653Z" fill="white"/>
            <path d="M75.4229 23.1599C75.4229 22.6011 75.4045 21.9866 75.3677 21.3164H76.9738C77.0341 21.6325 77.0757 21.952 77.0986 22.2732C77.7633 21.5424 78.5251 21.1769 79.384 21.1768C79.8967 21.1685 80.4002 21.3145 80.8301 21.5961C81.2601 21.8778 81.597 22.2823 81.7977 22.758C82.0586 23.3049 82.189 23.9996 82.189 24.842C82.2102 25.618 82.0574 26.3889 81.7419 27.0971C81.4758 27.6853 81.0403 28.1792 80.492 28.5145C79.9287 28.843 79.2869 29.0097 78.6362 28.9963C78.1245 28.9955 77.6165 28.9082 77.1334 28.7379V31.8516L75.4228 31.9984L75.4229 23.1599ZM79.9208 27.0101C80.2695 26.5378 80.4438 25.8479 80.4437 24.9402C80.4437 24.0977 80.2994 23.4867 80.0109 23.1073C79.8788 22.9255 79.7048 22.7787 79.504 22.6796C79.3031 22.5805 79.0814 22.5321 78.8579 22.5385C78.5357 22.5358 78.2182 22.6175 77.9367 22.7757C77.6394 22.9463 77.3688 23.1605 77.1337 23.4111V27.4466C77.3234 27.537 77.5232 27.6038 77.7289 27.6456C77.9498 27.6938 78.1751 27.7184 78.4011 27.7188C79.0658 27.7187 79.5724 27.4823 79.9208 27.0098V27.0101Z" fill="white"/>
            <path d="M83.2841 23.1599C83.2841 22.6011 83.2657 21.9866 83.2288 21.3164H84.8349C84.8952 21.6325 84.9369 21.952 84.9596 22.2732C85.6243 21.5424 86.3862 21.1769 87.2451 21.1768C87.7578 21.1686 88.2613 21.3146 88.6913 21.5963C89.1212 21.878 89.458 22.2825 89.6587 22.7582C89.9195 23.3052 90.05 23.9999 90.0501 24.8423C90.0712 25.6183 89.9183 26.3892 89.6028 27.0974C89.3368 27.6856 88.9013 28.1795 88.353 28.5148C87.7897 28.8433 87.1478 29.01 86.4971 28.9966C85.9854 28.9958 85.4774 28.9085 84.9944 28.7382V31.8519L83.2837 31.9987L83.2841 23.1599ZM87.7821 27.0101C88.1307 26.5378 88.305 25.8479 88.305 24.9402C88.305 24.0977 88.1607 23.4868 87.872 23.1073C87.7399 22.9255 87.566 22.7787 87.3651 22.6796C87.1643 22.5805 86.9426 22.5321 86.7191 22.5386C86.3968 22.5358 86.0795 22.6175 85.798 22.7757C85.5006 22.9463 85.23 23.1604 84.995 23.4111V27.4466C85.1846 27.537 85.3845 27.6038 85.5902 27.6456C85.8111 27.6939 86.0364 27.7184 86.2624 27.7188C86.9271 27.7187 87.4336 27.4823 87.7821 27.0099V27.0101Z" fill="white"/>
            <path d="M93.2774 28.3712C92.5461 27.967 91.9523 27.3502 91.5736 26.6011C91.1766 25.8327 90.9782 24.925 90.9784 23.878C90.9784 22.7424 91.2069 21.7777 91.6637 20.9839C92.0961 20.2147 92.7459 19.5927 93.5303 19.1973C94.3543 18.7908 95.2619 18.5862 96.1791 18.6003C96.7352 18.5979 97.2896 18.6624 97.8306 18.7924C98.3365 18.9139 98.8278 19.0906 99.2958 19.3193L98.8594 20.6459C98.0511 20.2336 97.1612 20.0094 96.2555 19.9899C95.6162 19.9753 94.9844 20.1306 94.4235 20.4401C93.8931 20.747 93.467 21.2081 93.2011 21.7633C92.8937 22.4219 92.7443 23.1441 92.7647 23.8717C92.753 24.5275 92.8671 25.1794 93.1008 25.7915C93.3108 26.3327 93.6807 26.7958 94.1604 27.1181C94.6427 27.444 95.2507 27.607 95.9842 27.6069C96.3184 27.6068 96.6521 27.5787 96.9816 27.523C97.3001 27.471 97.6131 27.3892 97.9164 27.2786V25.233H95.5977V23.8927H99.5796V28.1516C99.002 28.4231 98.3971 28.6314 97.7754 28.7729C97.1586 28.9156 96.5279 28.9881 95.8951 28.9892C94.8884 28.9892 94.0159 28.7832 93.2774 28.3712Z" fill="white"/>
            <path d="M105.743 28.8496C105.679 28.5203 105.64 28.1866 105.626 27.8512C105.339 28.1863 104.99 28.4604 104.597 28.6575C104.154 28.8834 103.664 28.9972 103.168 28.9892C102.763 28.9944 102.361 28.9073 101.994 28.7345C101.644 28.5677 101.352 28.3003 101.152 27.9661C100.935 27.5858 100.827 27.1518 100.841 26.713C100.828 26.3803 100.893 26.0493 101.028 25.7458C101.164 25.4423 101.368 25.1747 101.624 24.9639C102.145 24.5287 103.016 24.3111 104.234 24.3111C104.689 24.3109 105.142 24.3436 105.592 24.4089V24.2622C105.592 23.5966 105.451 23.1277 105.17 22.8555C104.889 22.5833 104.485 22.4471 103.958 22.4469C103.563 22.4511 103.17 22.5051 102.788 22.6077C102.412 22.7008 102.046 22.8295 101.694 22.9919L101.424 21.7351C101.812 21.5682 102.216 21.4395 102.629 21.3509C103.147 21.2324 103.677 21.1737 104.208 21.1763C104.771 21.1609 105.332 21.2619 105.856 21.4732C106.316 21.6783 106.69 22.0387 106.915 22.4923C107.169 22.9741 107.296 23.6223 107.296 24.4368V27.432C107.296 27.7438 107.315 28.2162 107.352 28.8493L105.743 28.8496ZM104.718 27.4532C105.049 27.2998 105.346 27.0815 105.591 26.8109V25.4146C105.212 25.369 104.83 25.3434 104.448 25.3379C103.741 25.3379 103.253 25.453 102.983 25.6832C102.85 25.7973 102.744 25.9405 102.674 26.1021C102.604 26.2636 102.571 26.4391 102.578 26.6153C102.578 26.9877 102.676 27.2636 102.872 27.4429C103.095 27.6315 103.381 27.7276 103.672 27.7117C104.036 27.7065 104.393 27.6181 104.718 27.4532Z" fill="white"/>
            <path d="M108.791 27.0411V18.1395L110.495 18V26.7342C110.495 27.0553 110.549 27.2821 110.658 27.4148C110.723 27.4853 110.804 27.5398 110.893 27.5743C110.983 27.6088 111.079 27.6222 111.174 27.6137C111.327 27.6063 111.478 27.5805 111.624 27.537L111.825 28.7729C111.634 28.846 111.435 28.8987 111.233 28.93C111.014 28.9681 110.793 28.9879 110.571 28.9892C109.385 28.9892 108.791 28.3398 108.791 27.0411Z" fill="white"/>
            <path d="M113.051 27.0411V18.1395L114.754 18V26.7342C114.754 27.0553 114.808 27.2821 114.917 27.4148C114.983 27.4853 115.063 27.5398 115.153 27.5743C115.242 27.6088 115.338 27.6222 115.433 27.6137C115.586 27.6063 115.737 27.5805 115.883 27.537L116.084 28.7729C115.892 28.846 115.693 28.8987 115.491 28.93C115.273 28.9681 115.051 28.9879 114.83 28.9892C113.644 28.9892 113.05 28.3398 113.051 27.0411Z" fill="white"/>
            <path d="M123.176 25.3029H118.286C118.365 26.8808 119.111 27.6697 120.523 27.6697C120.886 27.6683 121.248 27.6249 121.601 27.5405C121.962 27.4563 122.315 27.3406 122.657 27.1948L123.03 28.3749C122.15 28.7943 121.186 29.0045 120.212 28.989C119.418 28.989 118.748 28.8378 118.203 28.5353C117.667 28.2416 117.237 27.7847 116.974 27.2297C116.683 26.5859 116.543 25.8839 116.562 25.1769C116.543 24.436 116.692 23.7005 116.998 23.0268C117.261 22.4581 117.684 21.9799 118.214 21.6515C118.758 21.3281 119.38 21.1636 120.011 21.1764C120.638 21.1536 121.256 21.3281 121.78 21.6759C122.251 22.0069 122.617 22.469 122.833 23.0059C123.067 23.5889 123.183 24.213 123.175 24.8418L123.176 25.3029ZM121.507 24.2068C121.475 23.6064 121.325 23.156 121.057 22.8558C120.921 22.7061 120.755 22.5882 120.57 22.5104C120.384 22.4326 120.184 22.3968 119.983 22.4056C119.781 22.4003 119.58 22.438 119.393 22.5162C119.207 22.5943 119.038 22.7112 118.899 22.8592C118.611 23.1619 118.423 23.6111 118.335 24.2068H121.507Z" fill="white"/>
            <path d="M124.554 23.2084C124.554 22.794 124.536 22.1632 124.499 21.3161H126.099C126.127 21.5257 126.153 21.776 126.178 22.0668C126.204 22.3576 126.221 22.5938 126.23 22.7754C126.403 22.4819 126.598 22.2029 126.816 21.9412C127.004 21.7177 127.232 21.5307 127.488 21.3896C127.757 21.2443 128.058 21.1709 128.363 21.1765C128.592 21.1721 128.821 21.2003 129.042 21.2604L128.827 22.7544C128.647 22.7014 128.461 22.6756 128.273 22.6778C127.899 22.6697 127.531 22.7781 127.221 22.9885C126.846 23.2733 126.521 23.6189 126.258 24.0113V28.8496H124.554V23.2084Z" fill="white"/>
            <path d="M130.068 31.932C129.859 31.8979 129.653 31.8477 129.452 31.7819L129.763 30.5253C129.878 30.5578 130.024 30.5891 130.2 30.6195C130.364 30.6488 130.531 30.6639 130.698 30.6648C131.455 30.6648 132.023 30.1737 132.402 29.1915L132.512 28.9124L129.756 21.3161H131.591L132.977 25.5611C133.157 26.1075 133.302 26.6648 133.413 27.2296C133.542 26.6851 133.695 26.1405 133.87 25.5958L135.276 21.3159H137L134.251 28.947C134.044 29.5618 133.763 30.1482 133.413 30.693C133.145 31.1052 132.78 31.4435 132.35 31.6773C131.89 31.9031 131.383 32.0134 130.871 31.9987C130.602 32 130.333 31.9777 130.068 31.932Z" fill="white"/>
            <path d="M31.8196 9C25.655 9 23.4 11.3017 23.4 17.595V30.9544C23.4 37.2477 25.655 39.5495 31.8196 39.5495H44.9025C51.0673 39.5495 53.3264 37.2477 53.3264 30.9544V17.595C53.3264 11.3017 51.0714 9 44.9067 9H31.8196Z" fill="white"/>
            <path d="M29.3263 24.2774H30.1191V28.2715H29.3263V26.6495H27.5338V28.2715H26.7397V24.2774H27.5338V25.8887H29.3263V24.2774ZM33.7982 26.5637C33.7982 27.2129 33.4823 27.5598 32.9087 27.5598C32.3321 27.5598 32.0144 27.2022 32.0144 26.5358V24.2796H31.2205V26.5637C31.2205 27.6871 31.832 28.3312 32.8985 28.3312C33.9748 28.3312 34.5922 27.6748 34.5922 26.5304V24.2772H33.7993L33.7982 26.5637ZM42.9728 27.0239L42.0845 24.2772H41.4366L40.5483 27.0239L39.6839 24.2791H38.839L40.2035 28.2713H40.8592L41.7489 25.649L42.6383 28.2713H43.3021L44.6624 24.2791H43.8394L42.9728 27.0239ZM46.0853 26.5533H47.5292V25.826H46.0853V25.0085H48.1814V24.2804H45.3022V28.2695H48.257V27.5419H46.0853V26.5533ZM49.2033 28.2663H49.9868V24.2774H49.2035L49.2033 28.2663ZM36.1607 27.438L35.8046 28.2696H34.9942L36.7177 24.2777H37.4184L39.1351 28.2696H38.3028L37.9524 27.438H36.1607ZM36.4557 26.7178H37.6559L37.0539 25.2886L36.4557 26.7178Z" fill="black"/>
            <path d="M38.3631 19.192C37.0424 19.1905 35.7763 18.6542 34.8424 17.7009C33.9086 16.7475 33.3833 15.455 33.3818 14.1068H34.0855C34.0855 15.265 34.5362 16.3758 35.3385 17.1948C36.1407 18.0138 37.2289 18.4739 38.3634 18.4739C39.498 18.4739 40.5861 18.0138 41.3884 17.1948C42.1907 16.3758 42.6414 15.265 42.6414 14.1068H43.3451C43.3436 15.4551 42.8182 16.7478 41.8842 17.7011C40.9502 18.6545 39.6839 19.1907 38.3631 19.192Z" fill="black"/>
        </g>
    </g>
    <defs>
        <clipPath id="clip0_0_3">
            <rect width="156.92" height="48" fill="white"/>
        </clipPath>
    </defs>
</svg>
