<svg width="157" height="48" viewBox="0 0 157 48" fill="none" xmlns="http://www.w3.org/2000/svg">
<rect width="156.923" height="48" rx="8" fill="black"/>
<path d="M48.7513 24.82C48.7294 21.5593 51.4218 19.9618 51.5531 19.8962C50.0209 17.6641 47.6568 17.3577 46.8031 17.3358C44.8112 17.117 42.885 18.5394 41.8562 18.5394C40.8274 18.5394 39.2514 17.3577 37.5659 17.4015C35.3988 17.4452 33.3631 18.6926 32.2468 20.6402C29.9484 24.623 31.6558 30.4659 33.8666 33.6609C34.9611 35.2365 36.2525 36.9872 37.938 36.9215C39.5797 36.8559 40.1926 35.8711 42.1845 35.8711C44.1545 35.8711 44.7237 36.9215 46.4529 36.8777C48.2259 36.8559 49.3423 35.3021 50.393 33.7046C51.6626 31.9102 52.166 30.1158 52.1879 30.0282C52.1879 30.0282 48.7951 28.7371 48.7513 24.82ZM45.5117 15.2131C46.3872 14.0971 47.0001 12.609 46.825 11.0771C45.5336 11.1428 43.9357 11.9744 43.0163 13.0467C42.2064 14.0095 41.4622 15.5633 41.6592 17.0295C43.1039 17.1389 44.5923 16.3073 45.5117 15.2131Z" fill="white"/>
<path d="M67.7495 29.1543L68.6123 26.6669H72.2836L73.1418 29.1543H74.647L71.2648 19.7557H69.6265L66.2443 29.1543H67.7495ZM69.0253 25.4738L70.4112 21.4628H70.4846L71.8706 25.4738H69.0253Z" fill="white"/>
<path d="M75.8941 31.7976H77.2663V28.0575H77.3489C77.5967 28.5072 78.1015 29.2919 79.3865 29.2919C81.0936 29.2919 82.3327 27.9244 82.3327 25.6436C82.3327 23.3582 81.0753 22.0135 79.3727 22.0135C78.0648 22.0135 77.5921 22.8121 77.3489 23.248H77.2342V22.1053H75.8941V31.7976ZM77.2387 25.6298C77.2387 24.1567 77.8812 23.1792 79.079 23.1792C80.3227 23.1792 80.9468 24.2301 80.9468 25.6298C80.9468 27.0433 80.3043 28.1217 79.079 28.1217C77.8996 28.1217 77.2387 27.1121 77.2387 25.6298Z" fill="white"/>
<path d="M83.8701 31.7976H85.2422V28.0575H85.3248C85.5727 28.5072 86.0775 29.2919 87.3624 29.2919C89.0696 29.2919 90.3087 27.9244 90.3087 25.6436C90.3087 23.3582 89.0512 22.0135 87.3487 22.0135C86.0408 22.0135 85.5681 22.8121 85.3248 23.248H85.2101V22.1053H83.8701V31.7976ZM85.2147 25.6298C85.2147 24.1567 85.8572 23.1792 87.055 23.1792C88.2986 23.1792 88.9227 24.2301 88.9227 25.6298C88.9227 27.0433 88.2803 28.1217 87.055 28.1217C85.8755 28.1217 85.2147 27.1121 85.2147 25.6298Z" fill="white"/>
<path d="M100.502 22.2246H101.87C101.829 20.7194 100.498 19.6272 98.5887 19.6272C96.7025 19.6272 95.2569 20.7056 95.2569 22.3256C95.2569 23.6335 96.1931 24.3999 97.703 24.8083L98.8135 25.1112C99.8186 25.3774 100.594 25.7078 100.594 26.543C100.594 27.4609 99.7176 28.0666 98.5107 28.0666C97.4184 28.0666 96.5098 27.5802 96.4272 26.5568H95.0045C95.0963 28.2594 96.4134 29.3103 98.5198 29.3103C100.727 29.3103 101.998 28.1492 101.998 26.5568C101.998 24.8634 100.489 24.2072 99.2954 23.9135L98.3776 23.6748C97.6433 23.4867 96.6658 23.1425 96.6704 22.243C96.6704 21.4445 97.4001 20.8525 98.5565 20.8525C99.635 20.8525 100.401 21.3573 100.502 22.2246Z" fill="white"/>
<path d="M106.873 22.1053H105.428V20.4165H104.056V22.1053H103.023V23.2067H104.056V27.3691C104.051 28.6495 105.028 29.269 106.111 29.2461C106.547 29.2415 106.841 29.1589 107.002 29.0992L106.754 27.9657C106.662 27.984 106.492 28.0253 106.272 28.0253C105.827 28.0253 105.428 27.8785 105.428 27.0846V23.2067H106.873V22.1053Z" fill="white"/>
<path d="M111.285 29.2965C113.272 29.2965 114.57 27.8418 114.57 25.6619C114.57 23.4683 113.272 22.0135 111.285 22.0135C109.297 22.0135 107.999 23.4683 107.999 25.6619C107.999 27.8418 109.297 29.2965 111.285 29.2965ZM111.289 28.1447C109.99 28.1447 109.385 27.0111 109.385 25.6573C109.385 24.3081 109.99 23.1608 111.289 23.1608C112.579 23.1608 113.184 24.3081 113.184 25.6573C113.184 27.0111 112.579 28.1447 111.289 28.1447Z" fill="white"/>
<path d="M116.102 29.1543H117.474V24.8496C117.474 23.9272 118.186 23.2618 119.158 23.2618C119.443 23.2618 119.764 23.3123 119.874 23.3444V22.0319C119.737 22.0135 119.466 21.9998 119.292 21.9998C118.465 21.9998 117.759 22.4679 117.502 23.2251H117.428V22.1053H116.102V29.1543Z" fill="white"/>
<path d="M123.847 29.2965C125.385 29.2965 126.472 28.5393 126.784 27.392L125.486 27.158C125.238 27.8234 124.641 28.163 123.861 28.163C122.686 28.163 121.897 27.4012 121.86 26.0428H126.872V25.5564C126.872 23.0094 125.348 22.0135 123.751 22.0135C121.787 22.0135 120.493 23.5096 120.493 25.6757C120.493 27.8647 121.769 29.2965 123.847 29.2965ZM121.865 25.0149C121.92 24.0144 122.645 23.1471 123.76 23.1471C124.825 23.1471 125.522 23.9364 125.527 25.0149H121.865Z" fill="white"/>
</svg>
