<svg width="18" height="14" fill="none" xmlns="http://www.w3.org/2000/svg"><g clip-path="url(#clip0_2775_10647)"><path d="M0 4.5h18v5H0v-5z" fill="#E00034"/><path d="M16 .5H2a2 2 0 00-2 2v2h18v-2a2 2 0 00-2-2z" fill="#0098C3"/><path d="M8.922 8.667a1.667 1.667 0 111.237-2.783 2 2 0 100 2.232 1.662 1.662 0 01-1.237.55z" fill="#fff"/><path d="M11.834 7l-.598-.213.271-.573-.572.273-.213-.598-.213.598h-.001l-.572-.272.273.573-.598.213.598.212-.272.573.57-.271.003-.001.213.597.212-.598.573.272-.272-.573.598-.213z" fill="#fff"/><path d="M2 13.5h14a2 2 0 002-2v-2H0v2a2 2 0 002 2z" fill="#00AE65"/></g><defs><clipPath id="clip0_2775_10647"><rect y=".5" width="18" height="13" rx="3" fill="#fff"/></clipPath></defs></svg>