<svg width="158" height="48" viewBox="0 0 158 48" fill="none" xmlns="http://www.w3.org/2000/svg">
<rect x="0.923096" width="156.923" height="48" rx="8" fill="black"/>
<path d="M24.3221 34.5892V12.2819C24.3221 11.5035 24.8001 10.8304 25.4926 10.511L39.1458 23.432L25.4871 36.3571C25.1374 36.1949 24.8429 35.9432 24.6369 35.6307C24.431 35.3182 24.3219 34.9574 24.3221 34.5892ZM43.4778 27.5301L28.549 35.6872L40.3229 24.5454L43.4778 27.5301ZM48.1182 21.8719C48.3709 22.054 48.5762 22.2884 48.7182 22.5571C48.8602 22.8258 48.9352 23.1216 48.9374 23.422C48.9396 23.7223 48.869 24.0192 48.731 24.2897C48.593 24.5603 48.3912 24.7973 48.1412 24.9827L44.9688 26.7155L41.5 23.432L44.9677 20.1495L48.1182 21.8719ZM28.5578 11.183L43.4756 19.3338L40.3229 22.3165L28.5578 11.183Z" fill="white"/>
<path d="M68.3163 21.6477H69.7711C69.4544 19.8166 67.8895 18.55 65.8611 18.55C63.4288 18.55 61.6528 20.3811 61.6528 23.3824C61.6528 26.3562 63.3784 28.2056 65.9253 28.2056C68.2062 28.2056 69.8353 26.7096 69.8353 24.337V23.2677H66.141V24.4379H68.4631C68.431 25.9523 67.4306 26.9115 65.9253 26.9115C64.2687 26.9115 63.0617 25.6586 63.0617 23.3732C63.0617 21.097 64.2778 19.8442 65.8703 19.8442C67.1185 19.8442 67.9629 20.5325 68.3163 21.6477Z" fill="white"/>
<path d="M74.4944 28.2194C76.4816 28.2194 77.7803 26.7646 77.7803 24.5848C77.7803 22.3912 76.4816 20.9364 74.4944 20.9364C72.5073 20.9364 71.2086 22.3912 71.2086 24.5848C71.2086 26.7646 72.5073 28.2194 74.4944 28.2194ZM74.499 27.0675C73.2003 27.0675 72.5945 25.934 72.5945 24.5802C72.5945 23.231 73.2003 22.0837 74.499 22.0837C75.7886 22.0837 76.3944 23.231 76.3944 24.5802C76.3944 25.934 75.7886 27.0675 74.499 27.0675Z" fill="white"/>
<path d="M82.2811 28.2194C84.2682 28.2194 85.5669 26.7646 85.5669 24.5848C85.5669 22.3912 84.2682 20.9364 82.2811 20.9364C80.294 20.9364 78.9953 22.3912 78.9953 24.5848C78.9953 26.7646 80.294 28.2194 82.2811 28.2194ZM82.2857 27.0675C80.987 27.0675 80.3812 25.934 80.3812 24.5802C80.3812 23.231 80.987 22.0837 82.2857 22.0837C83.5753 22.0837 84.181 23.231 84.181 24.5802C84.181 25.934 83.5753 27.0675 82.2857 27.0675Z" fill="white"/>
<path d="M90.054 30.8673C91.8484 30.8673 93.2343 30.0459 93.2343 28.2332V21.0282H91.8897V22.1709H91.7887C91.5455 21.7349 91.059 20.9364 89.7465 20.9364C88.0439 20.9364 86.7911 22.281 86.7911 24.5251C86.7911 26.7738 88.0715 27.9716 89.7373 27.9716C91.0315 27.9716 91.5317 27.2419 91.7795 26.7922H91.8667V28.1781C91.8667 29.2841 91.1095 29.7614 90.0678 29.7614C88.9251 29.7614 88.4799 29.1877 88.2367 28.7839L87.0573 29.2703C87.429 30.1331 88.3698 30.8673 90.054 30.8673ZM90.0402 26.8335C88.8149 26.8335 88.177 25.8927 88.177 24.5068C88.177 23.153 88.8012 22.102 90.0402 22.102C91.238 22.102 91.8805 23.0795 91.8805 24.5068C91.8805 25.9615 91.2242 26.8335 90.0402 26.8335Z" fill="white"/>
<path d="M96.4467 18.6785H95.0745V28.0771H96.4467V18.6785Z" fill="white"/>
<path d="M101.331 28.2194C102.868 28.2194 103.956 27.4622 104.268 26.3149L102.969 26.0808C102.721 26.7463 102.125 27.0859 101.344 27.0859C100.17 27.0859 99.3803 26.3241 99.3436 24.9657H104.355V24.4792C104.355 21.9322 102.831 20.9364 101.234 20.9364C99.2702 20.9364 97.976 22.4325 97.976 24.5985C97.976 26.7876 99.2518 28.2194 101.331 28.2194ZM99.3482 23.9377C99.4033 22.9373 100.128 22.0699 101.244 22.0699C102.308 22.0699 103.006 22.8592 103.01 23.9377H99.3482Z" fill="white"/>
<path d="M109.408 28.0771H110.826V24.7729H112.753C114.933 24.7729 116.011 23.4558 116.011 21.7211C116.011 19.991 114.942 18.6785 112.758 18.6785H109.408V28.0771ZM110.826 23.5706V19.8947H112.606C114.011 19.8947 114.584 20.6565 114.584 21.7211C114.584 22.7858 114.011 23.5706 112.625 23.5706H110.826Z" fill="white"/>
<path d="M118.936 18.6785H117.564V28.0771H118.936V18.6785Z" fill="white"/>
<path d="M122.833 28.2332C123.999 28.2332 124.655 27.6412 124.917 27.1134H124.972V28.0771H126.312V23.3962C126.312 21.3448 124.696 20.9364 123.577 20.9364C122.301 20.9364 121.126 21.4504 120.667 22.7353L121.957 23.029C122.159 22.5288 122.673 22.047 123.595 22.047C124.481 22.047 124.935 22.5105 124.935 23.309V23.3411C124.935 23.8413 124.421 23.8322 123.154 23.979C121.819 24.135 120.451 24.4838 120.451 26.0854C120.451 27.4714 121.493 28.2332 122.833 28.2332ZM123.132 27.1318C122.356 27.1318 121.796 26.783 121.796 26.1038C121.796 25.3695 122.448 25.1079 123.242 25.0024C123.687 24.9427 124.742 24.8234 124.94 24.6261V25.5347C124.94 26.37 124.274 27.1318 123.132 27.1318Z" fill="white"/>
<path d="M128.754 30.7205C129.888 30.7205 130.604 30.1285 131.012 29.0179L133.926 21.0419L132.444 21.0282L130.659 26.4985H130.585L128.8 21.0282H127.332L129.911 28.1689L129.741 28.637C129.392 29.5732 128.901 29.6512 128.149 29.4447L127.818 30.569C127.983 30.6425 128.341 30.7205 128.754 30.7205Z" fill="white"/>
</svg>
